<?xml version="1.0" standalone="no"?>
<!DOCTYPE svg PUBLIC "-//W3C//DTD SVG 20010904//EN"
 "http://www.w3.org/TR/2001/REC-SVG-20010904/DTD/svg10.dtd">
<svg version="1.0" xmlns="http://www.w3.org/2000/svg"
 width="260.000000pt" height="260.000000pt" viewBox="0 0 260.000000 260.000000"
 preserveAspectRatio="xMidYMid meet">
<metadata>
Created by potrace 1.11, written by Peter Selinger 2001-2013
</metadata>
<g transform="translate(0.000000,260.000000) scale(0.100000,-0.100000)"
fill="#000000" stroke="none">
<path d="M1065 2323 c-116 -21 -149 -30 -209 -50 -365 -127 -624 -439 -685
-828 -10 -62 -7 -249 4 -320 7 -40 7 -41 -26 -43 -40 -3 -39 -2 -45 -38 -2
-16 -9 -51 -15 -79 -5 -27 -12 -66 -15 -85 -3 -19 -10 -53 -15 -75 -4 -22 -9
-43 -9 -46 0 -7 106 9 203 31 35 7 39 6 60 -24 85 -116 112 -148 173 -208 91
-89 159 -138 263 -191 170 -87 304 -117 501 -113 209 5 373 56 548 172 188
125 335 319 403 532 26 83 -3 73 227 77 73 1 135 5 138 7 3 3 -41 9 -98 13
-57 4 -119 9 -138 11 -19 1 -49 3 -66 3 -27 1 -31 4 -27 25 4 19 10 23 34 21
16 -1 29 2 29 7 0 5 -6 8 -12 7 -35 -4 -50 2 -44 18 8 21 9 205 1 258 -35 234
-135 434 -305 605 -207 209 -461 318 -741 317 -63 0 -123 -2 -134 -4z m275
-227 c112 -17 272 -79 353 -137 180 -130 296 -327 325 -550 9 -69 8 -181 -1
-195 -3 -5 -78 -9 -168 -9 l-162 0 -153 360 c-84 198 -162 371 -174 384 -21
23 -26 24 -167 25 -85 1 -151 -3 -158 -9 -7 -5 -91 -193 -186 -418 -140 -330
-176 -408 -193 -412 -12 -2 -52 -7 -91 -10 -38 -3 -89 -8 -111 -11 -29 -4 -45
-1 -50 8 -18 28 -14 240 6 330 92 420 507 707 930 644z m-50 -686 c39 -102 79
-191 88 -197 8 -7 14 -15 11 -17 -5 -5 -90 -13 -229 -22 -58 -3 -108 -8 -112
-11 -17 -9 -5 25 66 201 82 201 98 237 102 234 1 -2 34 -86 74 -188z m722
-255 c-2 -11 -5 -21 -5 -22 -1 0 -95 -3 -209 -5 -213 -4 -273 4 -125 17 45 4
91 9 102 11 11 2 52 6 90 10 39 3 71 7 72 8 1 1 19 1 40 1 32 0 37 -3 35 -20z
m-444 -32 c-10 -2 -26 -2 -35 0 -10 3 -2 5 17 5 19 0 27 -2 18 -5z m430 -35
c-3 -10 -41 -14 -139 -16 -73 -2 -131 -1 -129 1 3 3 46 8 95 12 50 4 91 8 92
9 1 0 20 2 43 4 31 2 41 -1 38 -10z m-34 -92 c-14 -46 -101 -196 -113 -196 -4
0 -24 39 -46 86 l-38 86 -61 -6 c-103 -10 -216 -29 -216 -37 0 -4 29 -77 65
-163 36 -86 65 -160 65 -164 0 -14 -122 -71 -195 -92 -131 -38 -225 -42 -412
-18 -21 3 -143 48 -180 66 l-41 21 65 158 c36 87 70 161 75 164 12 8 523 73
658 84 36 3 74 7 85 10 11 2 67 7 125 11 58 3 107 8 108 9 2 2 17 3 33 3 25
-1 28 -4 23 -22z m-1420 -171 c-4 -8 -10 -12 -15 -9 -14 8 -10 24 6 24 9 0 12
-6 9 -15z"/>
<path d="M2310 1119 c0 -5 5 -7 10 -4 6 3 10 8 10 11 0 2 -4 4 -10 4 -5 0 -10
-5 -10 -11z"/>
</g>
</svg>
